<svg width="644" height="563" viewBox="0 0 644 563" fill="none" xmlns="http://www.w3.org/2000/svg">
<path fill-rule="evenodd" clip-rule="evenodd" d="M342.874 105.128C453.9 101.999 548.359 185.835 561.861 294.66H576.432C588.561 294.66 594.465 279.842 585.658 271.499L582.575 268.583C571.814 258.391 571.353 241.408 581.542 230.647C591.73 219.887 608.716 219.423 619.477 229.614L622.557 232.531C666.597 274.234 637.083 348.328 576.432 348.328H561.196C554.839 384.83 535.551 414.24 509.846 439.945V536.166C509.846 550.986 497.833 563 483.012 563H402.51C390.961 563 380.705 555.61 377.053 544.651L367.191 515.064C360.708 495.614 342.509 482.498 322.008 482.498C301.507 482.498 283.308 495.614 276.825 515.064L266.963 544.651C263.311 555.61 253.056 563 241.506 563H161.004C146.184 563 134.17 550.986 134.17 536.166V455.664C134.17 441.496 123.514 423.195 99.9288 405.798C77.1795 389.016 48.0906 377.574 23.9966 375.012C10.3519 373.56 0 362.048 0 348.328V240.992C0 230.827 5.74253 221.537 14.8335 216.991L58.2218 195.296C75.8912 146.208 120.296 118.377 161.004 109.751V26.3193C161.004 13.5155 170.05 2.4953 182.608 0C185.452 0.050448 188.308 0.0606451 191.168 0.0708421C199.017 0.0984811 206.9 0.126387 214.672 0.992857C269.185 7.06969 324.3 54.5401 342.874 105.128ZM214.672 133.655V55.3036C247.705 64.5224 291.994 96.5123 295.182 134.311C295.558 149.726 309.42 161.932 324.764 160.347L332.307 159.568C426.924 149.801 509.846 225.691 509.846 321.494C509.846 348.738 499.022 374.869 479.757 394.136C478.072 395.821 476.269 397.504 474.436 399.211C465.632 407.422 456.178 416.239 456.178 428.83V509.332H421.852L418.104 498.091C404.316 456.729 365.608 428.83 322.008 428.83C278.408 428.83 239.699 456.729 225.912 498.091L222.165 509.332H187.838V455.664C187.838 416.164 160.661 383.907 131.787 362.609C108.863 345.698 81.0052 332.673 53.668 325.924V257.575L92.5025 238.158C99.5091 234.656 104.635 228.264 106.535 220.665C116.181 182.081 156.34 160.489 187.838 160.489C202.658 160.489 214.672 148.475 214.672 133.655ZM201.255 294.66C223.485 294.66 241.506 276.638 241.506 254.409C241.506 232.179 223.485 214.158 201.255 214.158C179.025 214.158 161.004 232.179 161.004 254.409C161.004 276.638 179.025 294.66 201.255 294.66Z" fill="white"/>
<path d="M576.433 294.66H561.862L561.196 348.328H576.433C637.083 348.328 666.598 274.234 622.558 232.531L619.477 229.614C608.717 219.423 591.731 219.887 581.542 230.647C571.353 241.408 571.814 258.391 582.575 268.583L585.658 271.499C594.465 279.842 588.562 294.66 576.433 294.66Z" fill="#169446"/>
<path d="M311 222.131C336 218.631 394.6 221.231 429 259.631" stroke="white" stroke-width="36" stroke-linecap="round"/>
</svg>
